<svg width="322" height="49" viewBox="0 0 322 49" fill="none" xmlns="http://www.w3.org/2000/svg">
<path d="M1 38.632V8.168L8.168 1H28.264L35.176 7.912V12.968H29.032V10.088L25.32 6.376H11.112L7.144 10.344V36.456L11.112 40.424H25.32L29.032 36.712V33.832H35.176V38.888L28.264 45.8H8.168L1 38.632ZM42.515 1H48.659V40.488H71.315V45.8H42.515V1ZM89.614 1H95.758L111.886 45.8H105.55L101.582 34.408H83.854L79.886 45.8H73.55L89.614 1ZM99.982 29.224L92.75 8.296H92.622L85.518 29.224H99.982ZM150.536 31.72V45.8H144.392V33.256L139.08 27.56H123.784V45.8H117.64V1H144.072L150.28 7.208V21.16L145.352 26.088L150.536 31.72ZM123.784 22.312H141.32L144.2 19.496V9.064L141.32 6.248H123.784V22.312ZM172.051 1H178.195L194.324 45.8H187.988L184.02 34.408H166.292L162.324 45.8H155.988L172.051 1ZM182.419 29.224L175.188 8.296H175.059L167.956 29.224H182.419Z" fill="#282A27" stroke="black"/>
<path d="M245 7.82401V4.62401L247.24 2.32001H250.632L252.872 4.62401V7.82401L250.632 10.128H247.24L245 7.82401ZM245.96 14.928H251.912V46.8H245.96V14.928Z" fill="#282A27" stroke="black"/>
<path d="M240.536 32.72V46.8H234.392V34.256L229.08 28.56H213.784V46.8H207.64V2H234.072L240.28 8.208V22.16L235.352 27.088L240.536 32.72ZM213.784 23.312H231.32L234.2 20.496V10.064L231.32 7.248H213.784V23.312Z" fill="#282A27" stroke="black"/>
<path d="M286.928 1.92798V41.672L280.784 47.816H264.464L259.152 42.568V38.536H265.168V40.712L267.024 42.632H278.096L280.976 39.816V28.872L275.6 33.8H263.824L257.68 27.656V8.07198L263.824 1.92798H276.048L281.296 7.11198V1.92798H286.928ZM280.976 12.936L275.024 7.11198H266.576L263.632 10.056V25.672L266.576 28.616H274.832L280.976 22.664V12.936Z" fill="#282A27" stroke="black"/>
<path d="M291.68 27.656V8.07198L297.824 1.92798H314.848L320.928 8.07198V27.656L314.848 33.8H297.824L291.68 27.656ZM312.096 28.616L314.976 25.8V9.92798L312.096 7.11198H300.512L297.632 9.92798V25.8L300.512 28.616H312.096Z" fill="#282A27" stroke="black"/>
<path d="M306.912 16.624V13.424L309.088 11.248H312.48L314.656 13.424V16.624L312.48 18.8H309.088L306.912 16.624Z" stroke="black"/>
<path d="M297.912 16.624V13.424L300.088 11.248H303.48L305.656 13.424V16.624L303.48 18.8H300.088L297.912 16.624Z" stroke="black"/>
<circle cx="301.84" cy="14.8" r="1" fill="black"/>
<circle cx="310.84" cy="14.8" r="1" fill="black"/>
</svg>
