<svg width="224" height="135" viewBox="0 0 224 135" fill="none" xmlns="http://www.w3.org/2000/svg">
<path d="M1 38.632V8.168L8.168 1H28.264L35.176 7.912V12.968H29.032V10.088L25.32 6.376H11.112L7.144 10.344V36.456L11.112 40.424H25.32L29.032 36.712V33.832H35.176V38.888L28.264 45.8H8.168L1 38.632ZM42.515 1H48.659V40.488H71.315V45.8H42.515V1ZM89.614 1H95.758L111.886 45.8H105.55L101.582 34.408H83.854L79.886 45.8H73.55L89.614 1ZM99.982 29.224L92.75 8.296H92.622L85.518 29.224H99.982ZM150.536 31.72V45.8H144.392V33.256L139.08 27.56H123.784V45.8H117.64V1H144.072L150.28 7.208V21.16L145.352 26.088L150.536 31.72ZM123.784 22.312H141.32L144.2 19.496V9.064L141.32 6.248H123.784V22.312ZM172.051 1H178.195L194.324 45.8H187.988L184.02 34.408H166.292L162.324 45.8H155.988L172.051 1ZM182.419 29.224L175.188 8.296H175.059L167.956 29.224H182.419Z" fill="#282A27" stroke="black"/>
<path d="M144 56.824V53.624L146.24 51.32H149.632L151.872 53.624V56.824L149.632 59.128H146.24L144 56.824ZM144.96 63.928H150.912V95.8H144.96V63.928Z" fill="#282A27" stroke="black"/>
<path d="M186.928 78.928V118.672L180.784 124.816H164.464L159.152 119.568V115.536H165.168V117.712L167.024 119.632H178.096L180.976 116.816V105.872L175.6 110.8H163.824L157.68 104.656V85.072L163.824 78.928H176.048L181.296 84.112V78.928H186.928ZM180.976 89.936L175.024 84.112H166.576L163.632 87.056V102.672L166.576 105.616H174.832L180.976 99.664V89.936Z" fill="#282A27" stroke="black"/>
<path d="M193.68 127.656V108.072L199.824 101.928H216.848L222.928 108.072V127.656L216.848 133.8H199.824L193.68 127.656ZM214.096 128.616L216.976 125.8V109.928L214.096 107.112H202.512L199.632 109.928V125.8L202.512 128.616H214.096Z" fill="#282A27" stroke="black"/>
<path d="M209.072 116.496V113.296L211.248 111.12H214.64L216.816 113.296V116.496L214.64 118.672H211.248L209.072 116.496Z" stroke="black"/>
<path d="M200.072 116.496V113.296L202.248 111.12H205.64L207.816 113.296V116.496L205.64 118.672H202.248L200.072 116.496Z" stroke="black"/>
<circle cx="204" cy="114.672" r="1" fill="black"/>
<circle cx="213" cy="114.672" r="1" fill="black"/>
</svg>
